<svg width="25" height="24" viewBox="0 0 25 24" fill="none" xmlns="http://www.w3.org/2000/svg">
<path d="M11.5 5H21.5M11.5 9H16.5" stroke="#6D6D6D" stroke-width="2" stroke-linecap="round" stroke-linejoin="round"/>
<path d="M6.5 5H4.5C3.94772 5 3.5 5.44772 3.5 6V8C3.5 8.55228 3.94772 9 4.5 9H6.5C7.05228 9 7.5 8.55228 7.5 8V6C7.5 5.44772 7.05228 5 6.5 5Z" fill="#6D6D6D" stroke="#6D6D6D" stroke-width="2" stroke-linecap="round" stroke-linejoin="round"/>
<path d="M11.5 15H21.5M11.5 19H16.5" stroke="#6D6D6D" stroke-width="2" stroke-linecap="round" stroke-linejoin="round"/>
<path d="M6.5 15H4.5C3.94772 15 3.5 15.4477 3.5 16V18C3.5 18.5523 3.94772 19 4.5 19H6.5C7.05228 19 7.5 18.5523 7.5 18V16C7.5 15.4477 7.05228 15 6.5 15Z" fill="#6D6D6D" stroke="#6D6D6D" stroke-width="2" stroke-linecap="round" stroke-linejoin="round"/>
</svg>
