<svg width="25" height="24" viewBox="0 0 25 24" fill="none" xmlns="http://www.w3.org/2000/svg">
<path fill-rule="evenodd" clip-rule="evenodd" d="M5.49997 9C5.28261 8.99988 5.07114 9.07058 4.89756 9.2014C4.72398 9.33221 4.59774 9.51603 4.53797 9.725L2.74597 16H22.254L20.461 9.725C20.4012 9.51619 20.2752 9.3325 20.1018 9.2017C19.9284 9.0709 19.7172 9.0001 19.5 9H5.49997ZM22.28 18H2.71997L3.15097 19.728C3.3133 20.3769 3.68784 20.953 4.21509 21.3646C4.74234 21.7763 5.39205 21.9999 6.06097 22H18.94C19.6089 21.9999 20.2586 21.7763 20.7858 21.3646C21.3131 20.953 21.6876 20.3769 21.85 19.728L22.28 18ZM7.46797 11.83C7.59246 11.5806 7.78397 11.3709 8.02101 11.2243C8.25806 11.0777 8.53126 11 8.80997 11H16.192C16.5898 11 16.9713 11.158 17.2526 11.4393C17.5339 11.7206 17.692 12.1022 17.692 12.5C17.692 12.8978 17.5339 13.2794 17.2526 13.5607C16.9713 13.842 16.5898 14 16.192 14H8.80897C8.55337 14 8.30201 13.9347 8.07874 13.8102C7.85548 13.6858 7.66771 13.5064 7.53327 13.289C7.39883 13.0716 7.32217 12.8234 7.31057 12.5681C7.29896 12.3128 7.3528 12.0587 7.46697 11.83H7.46797Z" fill="#6D6D6D"/>
<path d="M4.22799 5.55C4.14284 5.25232 4.12798 4.93893 4.18456 4.63452C4.24114 4.33012 4.36762 4.043 4.55404 3.7958C4.74046 3.54859 4.98174 3.34804 5.25885 3.20995C5.53597 3.07185 5.84137 2.99998 6.15099 3H18.85C19.1596 2.99998 19.465 3.07185 19.7421 3.20995C20.0192 3.34804 20.2605 3.54859 20.4469 3.7958C20.6334 4.043 20.7598 4.33012 20.8164 4.63452C20.873 4.93893 20.8581 5.25232 20.773 5.55L19.5 10H5.49999L4.22799 5.55Z" stroke="#6D6D6D" stroke-width="2" stroke-linecap="round" stroke-linejoin="round"/>
</svg>
