<svg width="25" height="24" viewBox="0 0 25 24" fill="none" xmlns="http://www.w3.org/2000/svg">
<path fill-rule="evenodd" clip-rule="evenodd" d="M5.50008 11C5.50008 10.2121 5.65527 9.43185 5.9568 8.7039C6.25833 7.97595 6.70028 7.31451 7.25744 6.75736C7.81459 6.20021 8.47602 5.75825 9.20398 5.45672C9.93193 5.15519 10.7121 5 11.5001 5C12.288 5 13.0682 5.15519 13.7962 5.45672C14.5241 5.75825 15.1856 6.20021 15.7427 6.75736C16.2999 7.31451 16.7418 7.97595 17.0434 8.7039C17.3449 9.43185 17.5001 10.2121 17.5001 11C17.5001 12.5913 16.8679 14.1174 15.7427 15.2426C14.6175 16.3679 13.0914 17 11.5001 17C9.90878 17 8.38265 16.3679 7.25744 15.2426C6.13222 14.1174 5.50008 12.5913 5.50008 11ZM11.5001 3C10.2269 3.00018 8.97222 3.30422 7.84022 3.88684C6.70821 4.46946 5.7316 5.31384 4.99156 6.3498C4.25152 7.38577 3.76941 8.5834 3.58531 9.84315C3.4012 11.1029 3.52042 12.3884 3.93305 13.5928C4.34568 14.7973 5.03981 15.8858 5.95774 16.768C6.87568 17.6502 7.99091 18.3006 9.21075 18.6651C10.4306 19.0296 11.7198 19.0977 12.9713 18.8638C14.2227 18.6298 15.4003 18.1006 16.4061 17.32L19.7931 20.707C19.9817 20.8892 20.2343 20.99 20.4965 20.9877C20.7587 20.9854 21.0095 20.8802 21.1949 20.6948C21.3803 20.5094 21.4855 20.2586 21.4878 19.9964C21.49 19.7342 21.3892 19.4816 21.2071 19.293L17.8201 15.906C18.7382 14.7235 19.306 13.307 19.4591 11.8178C19.6121 10.3285 19.3442 8.82619 18.6858 7.48165C18.0273 6.1371 17.0049 5.00429 15.7346 4.21202C14.4643 3.41976 12.9972 2.99983 11.5001 3ZM11.5001 15C12.5609 15 13.5784 14.5786 14.3285 13.8284C15.0786 13.0783 15.5001 12.0609 15.5001 11C15.5001 9.93913 15.0786 8.92172 14.3285 8.17157C13.5784 7.42143 12.5609 7 11.5001 7C10.4392 7 9.42179 7.42143 8.67165 8.17157C7.9215 8.92172 7.50008 9.93913 7.50008 11C7.50008 12.0609 7.9215 13.0783 8.67165 13.8284C9.42179 14.5786 10.4392 15 11.5001 15Z" fill="#6D6D6D"/>
</svg>
