<svg width="13" height="14" viewBox="0 0 13 14" fill="none" xmlns="http://www.w3.org/2000/svg">
<path d="M10.5626 2.66667V5.375M11.9168 4.02083H9.20845M2.80595 8.78533C2.12453 9.18508 0.338659 10.0003 1.42633 11.0203C1.95824 11.5186 2.54974 11.875 3.29399 11.875H7.53958C8.28383 11.875 8.87587 11.5186 9.4067 11.0203C10.4949 10.0003 8.70904 9.18454 8.02762 8.78533C7.23437 8.32544 6.33371 8.08324 5.41678 8.08324C4.49986 8.08324 3.5992 8.32544 2.80595 8.78533ZM7.58345 4.29167C7.58345 4.8663 7.35518 5.4174 6.94885 5.82373C6.54252 6.23006 5.99142 6.45833 5.41678 6.45833C4.84215 6.45833 4.29105 6.23006 3.88472 5.82373C3.47839 5.4174 3.25012 4.8663 3.25012 4.29167C3.25012 3.71703 3.47839 3.16593 3.88472 2.7596C4.29105 2.35327 4.84215 2.125 5.41678 2.125C5.99142 2.125 6.54252 2.35327 6.94885 2.7596C7.35518 3.16593 7.58345 3.71703 7.58345 4.29167Z" stroke="white" stroke-linecap="round" stroke-linejoin="round"/>
</svg>
